<?xml version="1.0" encoding="UTF-8" standalone="no"?>
<svg
   xmlns:dc="http://purl.org/dc/elements/1.1/"
   xmlns:cc="http://creativecommons.org/ns#"
   xmlns:rdf="http://www.w3.org/1999/02/22-rdf-syntax-ns#"
   xmlns:svg="http://www.w3.org/2000/svg"
   xmlns="http://www.w3.org/2000/svg"
   id="svg206"
   preserveAspectRatio="xMidYMid meet"
   viewBox="0 0 390 390"
   height="390pt"
   width="390pt"
   version="1.0">
  <defs
     id="defs210" />
  <metadata
     id="metadata2">
Created by potrace 1.15, written by Peter Selinger 2001-2017
<rdf:RDF>
  <cc:Work
     rdf:about="">
    <dc:format>image/svg+xml</dc:format>
    <dc:type
       rdf:resource="http://purl.org/dc/dcmitype/StillImage" />
    <dc:title></dc:title>
  </cc:Work>
</rdf:RDF>
</metadata>
  <g
     style="opacity:0.808"
     id="layer1">
    <g
       style="fill:#000000;stroke:none"
       id="g204"
       transform="matrix(0.1,0,0,-0.1,0,389.99998)">
      <path
         style=""
         id="path144"
         d="m 550,3505 c -105,-35 -200,-141 -222,-248 -43,-206 163,-412 369,-369 155,32 275,190 260,339 -11,105 -90,213 -190,262 -61,29 -155,36 -217,16 z" />
      <path
         style=""
         id="path146"
         d="m 1830,3505 c -105,-35 -200,-141 -222,-248 -43,-206 163,-412 369,-369 155,32 275,190 260,339 -11,105 -90,213 -190,262 -61,29 -155,36 -217,16 z" />
      <path
         style=""
         id="path148"
         d="m 3110,3505 c -105,-35 -200,-141 -222,-248 -25,-117 32,-244 142,-319 107,-74 229,-75 337,-3 177,118 201,338 53,485 -85,86 -207,119 -310,85 z" />
      <path
         style=""
         id="path164"
         d="m 550,2225 c -105,-35 -200,-141 -222,-248 -43,-206 163,-412 369,-369 155,32 275,190 260,339 -11,105 -90,213 -190,262 -61,29 -155,36 -217,16 z" />
      <path
         style=""
         id="path166"
         d="m 1830,2225 c -105,-35 -200,-141 -222,-248 -43,-206 163,-412 369,-369 155,32 275,190 260,339 -11,105 -90,213 -190,262 -61,29 -155,36 -217,16 z" />
      <path
         style=""
         id="path168"
         d="m 3110,2225 c -105,-35 -200,-141 -222,-248 -25,-117 32,-244 142,-319 107,-74 229,-75 337,-3 177,118 201,338 53,485 -85,86 -207,119 -310,85 z" />
      <path
         style=""
         id="path184"
         d="M 550,945 C 445,910 350,804 328,697 285,491 491,285 697,328 852,360 972,518 957,667 946,772 867,880 767,929 706,958 612,965 550,945 Z" />
      <path
         style=""
         id="path186"
         d="m 1830,945 c -105,-35 -200,-141 -222,-248 -43,-206 163,-412 369,-369 155,32 275,190 260,339 -11,105 -90,213 -190,262 -61,29 -155,36 -217,16 z" />
      <path
         style=""
         id="path188"
         d="m 3110,945 c -105,-35 -200,-141 -222,-248 -43,-206 163,-412 369,-369 155,32 275,190 260,339 -11,105 -90,213 -190,262 -61,29 -155,36 -217,16 z" />
    </g>
  </g>
</svg>
